<?xml version="1.0" encoding="UTF-8"?>
<svg id="Layer_2" data-name="Layer 2" xmlns="http://www.w3.org/2000/svg" viewBox="0 0 64 64">
  <defs>
    <style>
      .cls-1 {
        opacity: .2;
      }

      .cls-1, .cls-2 {
        fill: #fff;
      }

      .cls-3 {
        fill: #e673c7;
      }

      .cls-4 {
        stroke-linecap: round;
      }

      .cls-4, .cls-5 {
        fill: none;
        stroke: #fff;
        stroke-miterlimit: 10;
        stroke-width: 2px;
      }
    </style>
  </defs>
  <g id="Layer_1-2" data-name="Layer 1">
    <g>
      <rect class="cls-3" x="0" y="0" width="64" height="64" rx="12.3913" ry="12.3913"/>
      <path class="cls-1" d="M64,51.6087v-6.7386L19.1299,0h-6.7386C5.5478,0,0,5.5478,0,12.3913v9.0512l42.5574,42.5575h9.0513c6.8436,0,12.3913-5.5478,12.3913-12.3913Z"/>
      <g>
        <g>
          <circle class="cls-5" cx="30.1476" cy="29.6683" r="18.4876"/>
          <path class="cls-2" d="M22.2535,13.4365c.4255.8258.2337,1.8208.156,2.7069-.0875.9984-.0588,1.9785.1056,2.9683.2992,1.8019.9889,4.1134,2.9021,4.6963.8939.2723,1.5828.7172,2.2184,1.4081.6161.6697,1.0534,1.4849,1.6865,2.1405,1.3255,1.3727,3.2567,1.6473,4.9575.841.3799-.1801.5864-.7367.4591-1.1282-.3265-1.0039-.675-2.0037-.9772-3.0152-.2438-.816-.2931-1.5892.349-2.2375,1.2895-1.3019,3.3735.372,4.7782.6844.5246.1167,1.0826-.155,1.2289-.6977.3616-1.3416.1716-2.7157-.5718-3.8939-.3074-.4872-.8474-.9645-.6494-1.575.2003-.6172.5389-1.0788.4584-1.7632-.1485-1.2616-2.1483-1.2766-1.998,0,.0667.567-.3938,1.0799-.4911,1.6376-.1013.581.026,1.1479.2897,1.671.5987,1.1874,1.4262,1.9428,1.0355,3.3924l1.2289-.6977c-1.2732-.2832-2.3818-1.055-3.6882-1.213-1.1277-.1364-2.2293.233-3.034,1.0424-2.0618,2.0739-.6428,4.8687.1144,7.1966l.4591-1.1282c-1.6946.8034-2.7084-.7339-3.5924-1.8996-1.0122-1.3348-2.1649-2.1412-3.7304-2.6914-.7089-.2492-.9819-1.2909-1.1908-1.963-.2608-.8394-.4012-1.6992-.4086-2.5783-.0144-1.7021.4533-3.3138-.3702-4.912-.5891-1.1434-2.3138-.1339-1.7252,1.0084h0Z"/>
          <path class="cls-2" d="M33.5264,48.1827c1.0053-.1648,1.604-1.2609,2.1167-2.0339.496-.7478,1.4174-1.8777,1.2833-2.8308-.1606-1.1405-1.2305-1.0918-2.0993-1.204-.8152-.1053-2.0803-.701-2.5997-1.3584-1.1892-1.5051.384-3.5599,1.3981-4.6349,1.0413-1.1038,3.8248-3.2942,2.0217-4.8983v1.4128c.5841-.7367,1.4491.6635,1.7488,1.0729.5758.7868,1.2245,1.4607,2.0602,1.9762.801.4942,1.7091.8149,2.6389.949.4568.0659.9152.1014,1.3767.0713.4993-.0326,1.0783-.2667,1.5641-.2107l-.7064-.2926c.2012.1607.1384.8763.1318,1.11-.0123.4398-.0958.8665-.2272,1.2859-.2693.8594-.7861,1.5706-1.4598,2.1572-.9716.8458.4465,2.254,1.4128,1.4128,1.397-1.2163,2.2206-3.0058,2.2722-4.8559.023-.8232-.033-1.9622-.717-2.5228-.7741-.6345-1.8203-.0602-2.7154-.0704-1.9449-.0221-3.2202-1.1225-4.3204-2.5949-.5328-.7131-1.1496-1.3543-2.0377-1.5874-.8661-.2273-1.8595-.0382-2.4343.6867-.3197.4033-.4397,1.0216,0,1.4128-.017-.137-.0491-.1444-.0964-.0221-.0537.088-.1159.1699-.1865.2455-.1321.1646-.2764.3203-.4187.4758-.3145.3437-.6435.6735-.9679,1.0077-.5874.6052-1.162,1.2276-1.6411,1.9242-.8968,1.304-1.3937,3.1015-.8478,4.6409.5731,1.6164,2.2722,2.5694,3.8413,3.038.2509.0749,1.1006.3382,1.3395.1738l.0936.0027-.3685-.7869c-.0289,0-.378.6938-.4021.7358-.2318.404-.4785.7998-.7389,1.186-.1911.2833-.5148.9451-.8454.9992-1.2658.2075-.7287,2.1331.5311,1.9266h0Z"/>
          <path class="cls-2" d="M43.2833,27.7521c.6579-.2281,1.3291-.4149,2.0102-.5594.2367-.0502.4776-.255.597-.4591.1253-.2141.1784-.5297.1007-.7698-.0782-.2417-.228-.4749-.4591-.597-.2458-.1299-.4962-.1587-.7698-.1007-.6811.1445-1.3524.3313-2.0102.5594-.2475.0858-.4617.2279-.597.4591-.1253.2141-.1784.5297-.1007.7698.0782.2417.228.4749.4591.597.2289.121.5165.1885.7698.1007h0Z"/>
        </g>
        <line class="cls-4" x1="22.7774" y1="46.6193" x2="19.7117" y2="53.6698"/>
        <path class="cls-4" d="M20.9822,50.7478c2.8079,1.2226,5.9074,1.9005,9.1654,1.9005,12.6915,0,22.98-10.2885,22.98-22.98,0-9.4334-5.6841-17.5392-13.8142-21.0793"/>
        <line class="cls-4" x1="24.7222" y1="57.2271" x2="37.0549" y2="57.2271"/>
        <line class="cls-4" x1="30.8521" y1="52.6483" x2="30.8521" y2="57.2271"/>
        <line class="cls-4" x1="41.4517" y1="6.9109" x2="38.6144" y2="13.4364"/>
      </g>
    </g>
  </g>
</svg>