<?xml version="1.0" encoding="UTF-8"?>
<svg id="Layer_2" data-name="Layer 2" xmlns="http://www.w3.org/2000/svg" viewBox="0 0 64 64">
  <defs>
    <style>
      .cls-1 {
        fill: #ffc5a8;
      }

      .cls-2 {
        fill: #fff;
      }

      .cls-3 {
        fill: none;
        stroke: #fff;
        stroke-miterlimit: 10;
        stroke-width: 3px;
      }
    </style>
  </defs>
  <g id="Layer_1-2" data-name="Layer 1">
    <g>
      <rect class="cls-1" x="0" width="64" height="64" rx="12.3913" ry="12.3913"/>
      <g>
        <circle class="cls-3" cx="32" cy="32" r="22.0593"/>
        <path class="cls-2" d="M22.3148,12.7878c.4756.9231.2307,2.0861.1441,3.0744-.107,1.2199-.0644,2.4145.137,3.6237.3788,2.2745,1.2743,5.0864,3.6779,5.8187,2.2494.6853,3.0022,2.5796,4.5233,4.155,1.6826,1.7426,4.1352,2.0725,6.2885,1.0517.5704-.2704.8805-1.1061.6893-1.694-.3896-1.1979-.8054-2.3908-1.166-3.5977-.2593-.8676-.3505-1.6774.3372-2.3701.6348-.6394,1.4004-.5496,2.1955-.2848,1.0867.362,2.0802.9302,3.2062,1.1807.7876.1752,1.6255-.2328,1.8452-1.0477.4521-1.6773.2165-3.4098-.7133-4.8835-.3037-.4813-.8653-.9912-.7748-1.5684.128-.8167.6957-1.3523.589-2.2593-.0947-.8044-.6216-1.5-1.5-1.5-.7372,0-1.5953.6901-1.5,1.5.0747.6348-.4571,1.243-.5749,1.8721-.1449.7738.0231,1.5347.3767,2.2312.6772,1.3334,1.6428,2.1842,1.2045,3.8104l1.8452-1.0477c-1.5485-.3445-2.8901-1.2742-4.4827-1.4584-1.4254-.1648-2.8218.312-3.8379,1.334-2.5632,2.5782-.8878,5.9811.0572,8.8866l.6893-1.694c-1.827.8662-2.9291-.9218-3.865-2.1561-.598-.7886-1.245-1.4898-2.0355-2.0891-.8224-.6235-1.6691-.8738-2.5996-1.2638-.7032-.2947-.9865-1.4216-1.2057-2.1271-.3036-.9773-.4679-1.9711-.4766-2.9945-.0177-2.0981.532-4.045-.4837-6.0164-.8845-1.7168-3.4741-.201-2.5904,1.5142h0Z"/>
        <path class="cls-2" d="M36.1134,54.3882c1.287-.211,2.0519-1.5768,2.7097-2.5684.6435-.9701,1.7342-2.3457,1.5677-3.5741-.2022-1.4917-1.5494-1.5636-2.7255-1.6926-.9073-.0995-2.405-.8001-2.966-1.5416-1.2552-1.659.5806-3.9418,1.6682-5.0948,1.3788-1.4616,4.758-4.1934,2.4122-6.2801v2.1213c.2563-.3232-.0268-.1415.1324-.1505.149-.0084.2818.0534.4086.1228.4506.2464.7662.8418,1.0619,1.2455.7202.9833,1.5232,1.8235,2.5687,2.4685.9779.6033,2.0878.9966,3.2222,1.1634.5723.0842,1.1459.1338,1.7246.096.5914-.0386,1.295-.3172,1.8663-.2515l-1.0607-.4393c-.1839-.1469.0205.1488.0398.3015.0331.2623.0347.5413.0273.8051-.0139.4993-.1122.976-.2601,1.4524-.3032.9764-.8994,1.7735-1.6627,2.438-1.4588,1.27.6705,3.3845,2.1213,2.1213,1.7269-1.5035,2.7377-3.7273,2.8014-6.0118.0304-1.0887-.0782-2.4714-.9458-3.228-1.0095-.8805-2.2872-.1609-3.4577-.1743-2.2077-.0251-3.6382-1.2782-4.8892-2.9437-.6878-.9157-1.4715-1.7339-2.6155-2.0356-1.1293-.2979-2.4529-.0491-3.2042.8986-.4801.6055-.6603,1.5339,0,2.1213l-.0953-.5028-.1359.2064c-.1492.1044-.2812.3326-.4033.4704-.3015.3402-.6172.6673-.9339.9932-.597.6144-1.203,1.2208-1.7427,1.8874-1.1241,1.3883-1.9284,2.9636-2.001,4.7803-.0703,1.7584.733,3.3358,2.1678,4.338.7065.4935,1.515.8647,2.3122,1.1859.4474.1802.873.3006,1.3482.3709.3742.0554.7834-.0077,1.1329.1236l-.6619-.3858-.0232-.0232-.2048-.7571-.0208.2376.2048-.7571c-.3233.7328-.7539,1.4281-1.1865,2.1008-.2104.3272-.4275.6504-.6551.966-.1009.1439-.2055.2849-.314.4231-.1676.2202-.211.2468-.1301.0798-.8001.1311-1.2459,1.1237-1.0477,1.8452.2335.8498,1.0428,1.1792,1.8452,1.0477h0Z"/>
        <path class="cls-2" d="M47.7553,30.0106c.785-.2722,1.5858-.4951,2.3986-.6675.3554-.0754.7171-.3829.8964-.6893.1882-.3215.2679-.7954.1512-1.1558-.1175-.363-.3424-.7131-.6893-.8964l-.3583-.1512c-.2658-.0714-.5317-.0714-.7975,0-.8127.1724-1.6136.3953-2.3986.6675-.3717.1289-.6933.3422-.8964.6893-.1882.3215-.2679.7954-.1512,1.1558.1175.363.3424.7131.6893.8964.3438.1816.7755.2831,1.1558.1512h0Z"/>
      </g>
    </g>
  </g>
</svg>